<mxfile host="app.diagrams.net" modified="2022-09-09T14:12:03.744Z" agent="5.0 (Windows NT 10.0; Win64; x64) AppleWebKit/537.36 (KHTML, like Gecko) Chrome/104.0.0.0 Safari/537.36" etag="r2fL-spQnJAjggQFF6GV" version="20.2.8" type="github">
  <diagram name="Page-1" id="edf60f1a-56cd-e834-aa8a-f176f3a09ee4">
    <mxGraphModel dx="1578" dy="818" grid="1" gridSize="10" guides="1" tooltips="1" connect="1" arrows="1" fold="1" page="1" pageScale="1" pageWidth="1100" pageHeight="850" background="none" math="0" shadow="0">
      <root>
        <mxCell id="0" />
        <mxCell id="1" parent="0" />
        <mxCell id="u-qEJ6I-UtgTXxH6iM0w-1" value="고속도로 진입" style="rounded=1;whiteSpace=wrap;html=1;" vertex="1" parent="1">
          <mxGeometry x="460" y="80" width="120" height="60" as="geometry" />
        </mxCell>
        <mxCell id="u-qEJ6I-UtgTXxH6iM0w-2" value="" style="endArrow=classic;html=1;rounded=0;exitX=0.5;exitY=1;exitDx=0;exitDy=0;" edge="1" parent="1" source="u-qEJ6I-UtgTXxH6iM0w-1">
          <mxGeometry width="50" height="50" relative="1" as="geometry">
            <mxPoint x="470" y="260" as="sourcePoint" />
            <mxPoint x="520" y="180" as="targetPoint" />
          </mxGeometry>
        </mxCell>
        <mxCell id="u-qEJ6I-UtgTXxH6iM0w-4" value="" style="endArrow=classic;html=1;rounded=0;exitX=0.5;exitY=1;exitDx=0;exitDy=0;" edge="1" parent="1" target="u-qEJ6I-UtgTXxH6iM0w-6">
          <mxGeometry width="50" height="50" relative="1" as="geometry">
            <mxPoint x="520" y="240" as="sourcePoint" />
            <mxPoint x="520" y="340" as="targetPoint" />
          </mxGeometry>
        </mxCell>
        <mxCell id="u-qEJ6I-UtgTXxH6iM0w-5" value="" style="endArrow=classic;html=1;rounded=0;exitX=1;exitY=0.5;exitDx=0;exitDy=0;" edge="1" parent="1" source="u-qEJ6I-UtgTXxH6iM0w-9" target="u-qEJ6I-UtgTXxH6iM0w-10">
          <mxGeometry width="50" height="50" relative="1" as="geometry">
            <mxPoint x="499" y="219.9999999999999" as="sourcePoint" />
            <mxPoint x="799" y="370" as="targetPoint" />
            <Array as="points">
              <mxPoint x="799" y="220" />
              <mxPoint x="799" y="370" />
            </Array>
          </mxGeometry>
        </mxCell>
        <mxCell id="u-qEJ6I-UtgTXxH6iM0w-6" value="IC 출구&lt;br&gt;하이패스" style="rounded=0;whiteSpace=wrap;html=1;" vertex="1" parent="1">
          <mxGeometry x="460" y="560" width="120" height="60" as="geometry" />
        </mxCell>
        <mxCell id="u-qEJ6I-UtgTXxH6iM0w-7" value="예" style="text;html=1;strokeColor=none;fillColor=none;align=center;verticalAlign=middle;whiteSpace=wrap;rounded=0;" vertex="1" parent="1">
          <mxGeometry x="520" y="270" width="60" height="40" as="geometry" />
        </mxCell>
        <mxCell id="u-qEJ6I-UtgTXxH6iM0w-8" value="아니오" style="text;html=1;strokeColor=none;fillColor=none;align=center;verticalAlign=middle;whiteSpace=wrap;rounded=0;" vertex="1" parent="1">
          <mxGeometry x="799" y="220" width="60" height="40" as="geometry" />
        </mxCell>
        <mxCell id="u-qEJ6I-UtgTXxH6iM0w-9" value="하이패스" style="rhombus;whiteSpace=wrap;html=1;" vertex="1" parent="1">
          <mxGeometry x="480" y="180" width="80" height="80" as="geometry" />
        </mxCell>
        <mxCell id="u-qEJ6I-UtgTXxH6iM0w-10" value="통행권 출력" style="rounded=0;whiteSpace=wrap;html=1;" vertex="1" parent="1">
          <mxGeometry x="739" y="365" width="120" height="60" as="geometry" />
        </mxCell>
        <mxCell id="u-qEJ6I-UtgTXxH6iM0w-11" value="" style="endArrow=classic;html=1;rounded=0;exitX=0.5;exitY=1;exitDx=0;exitDy=0;entryX=0.5;entryY=0;entryDx=0;entryDy=0;" edge="1" parent="1" source="u-qEJ6I-UtgTXxH6iM0w-10" target="u-qEJ6I-UtgTXxH6iM0w-12">
          <mxGeometry width="50" height="50" relative="1" as="geometry">
            <mxPoint x="589" y="450" as="sourcePoint" />
            <mxPoint x="799" y="500" as="targetPoint" />
            <Array as="points" />
          </mxGeometry>
        </mxCell>
        <mxCell id="u-qEJ6I-UtgTXxH6iM0w-12" value="통행권 반납&lt;br&gt;통행료 결제" style="rounded=0;whiteSpace=wrap;html=1;" vertex="1" parent="1">
          <mxGeometry x="739" y="560" width="120" height="60" as="geometry" />
        </mxCell>
        <mxCell id="u-qEJ6I-UtgTXxH6iM0w-13" value="" style="endArrow=classic;html=1;rounded=0;exitX=0;exitY=0.5;exitDx=0;exitDy=0;" edge="1" parent="1" source="u-qEJ6I-UtgTXxH6iM0w-1" target="u-qEJ6I-UtgTXxH6iM0w-14">
          <mxGeometry width="50" height="50" relative="1" as="geometry">
            <mxPoint x="520" y="350" as="sourcePoint" />
            <mxPoint x="290" y="470" as="targetPoint" />
            <Array as="points">
              <mxPoint x="290" y="110" />
            </Array>
          </mxGeometry>
        </mxCell>
        <mxCell id="u-qEJ6I-UtgTXxH6iM0w-14" value="명절 기간&lt;br&gt;3일 무료" style="shape=document;whiteSpace=wrap;html=1;boundedLbl=1;" vertex="1" parent="1">
          <mxGeometry x="230" y="385" width="120" height="80" as="geometry" />
        </mxCell>
        <mxCell id="u-qEJ6I-UtgTXxH6iM0w-15" value="" style="endArrow=classic;html=1;rounded=0;exitX=0.5;exitY=0.916;exitDx=0;exitDy=0;exitPerimeter=0;" edge="1" parent="1" source="u-qEJ6I-UtgTXxH6iM0w-14" target="u-qEJ6I-UtgTXxH6iM0w-16">
          <mxGeometry width="50" height="50" relative="1" as="geometry">
            <mxPoint x="520" y="470" as="sourcePoint" />
            <mxPoint x="290" y="640" as="targetPoint" />
          </mxGeometry>
        </mxCell>
        <mxCell id="u-qEJ6I-UtgTXxH6iM0w-16" value="통과" style="rounded=0;whiteSpace=wrap;html=1;" vertex="1" parent="1">
          <mxGeometry x="230" y="560" width="120" height="60" as="geometry" />
        </mxCell>
      </root>
    </mxGraphModel>
  </diagram>
</mxfile>
